<?xml version="1.0" encoding="utf-8"?>
<!-- Generator: Adobe Illustrator 25.0.1, SVG Export Plug-In . SVG Version: 6.00 Build 0)  -->
<svg version="1.1" id="Layer_1" xmlns="http://www.w3.org/2000/svg" xmlns:xlink="http://www.w3.org/1999/xlink" x="0px" y="0px"
	 viewBox="0 0 1000 255.8" style="enable-background:new 0 0 1000 255.8;" xml:space="preserve">
<style type="text/css">
	.st0{fill:#F2CB15;}
	.st1{fill:#8CA63C;}
	.st2{fill:#FFFFFF;}
	.st3{fill:#ED1C24;}
</style>
<g>
	<g>
		<path d="M274.2,180.5h-19.2v-68.3h39.8c6,0,11.1,0.8,15.2,2.4c4.1,1.6,7.1,4,9.2,7.1c2.1,3.1,3.1,6.9,3.1,11.4
			c0,3.6-0.6,6.7-1.9,9.3c-1.3,2.6-3.2,4.7-6,6.3c-2.7,1.6-6.3,2.7-10.6,3.2v1c3.5,0.9,6.1,2.2,7.6,3.9c1.5,1.7,2.9,3.9,4.2,6.5
			l8.5,17.1h-22.1l-8.2-16.7c-0.8-1.7-1.7-3-2.5-4c-0.9-1-2-1.6-3.5-2c-1.4-0.4-3.4-0.6-5.9-0.6h-7.8V180.5z M274.2,129.4V143h20.5
			c2.8,0,4.8-0.4,5.9-1.2c1.2-0.8,1.7-2.7,1.7-5.6c0-2.7-0.6-4.5-1.7-5.4c-1.2-0.9-3.1-1.3-5.9-1.3H274.2z"/>
		<path d="M367.2,181.5c-7.9,0-14.7-1.4-20.3-4.3c-5.7-2.9-10-7-13-12.2c-3-5.3-4.5-11.5-4.5-18.6s1.5-13.3,4.5-18.6
			c3-5.3,7.3-9.3,13-12.2c5.7-2.9,12.4-4.3,20.3-4.3c8.2,0,15.1,1.4,20.7,4.3c5.7,2.9,10,7,13,12.2c3,5.3,4.5,11.5,4.5,18.6
			s-1.5,13.3-4.5,18.6c-3,5.3-7.3,9.3-13,12.2C382.2,180.1,375.3,181.5,367.2,181.5z M367.2,163.2c4.6,0,8.2-0.5,10.8-1.4
			c2.6-0.9,4.4-2.6,5.5-5c1.1-2.4,1.6-5.9,1.6-10.4c0-4.6-0.5-8-1.6-10.4c-1.1-2.4-2.9-4.1-5.5-5c-2.6-0.9-6.2-1.4-10.8-1.4
			c-4.6,0-8.2,0.5-10.7,1.4c-2.5,0.9-4.3,2.6-5.2,5c-1,2.4-1.5,5.9-1.5,10.4c0,4.5,0.5,7.9,1.5,10.4c1,2.4,2.7,4.1,5.2,5
			C359,162.7,362.5,163.2,367.2,163.2z"/>
		<path d="M459.3,180.5h-45.7v-68.3h43.4c5,0,9.1,0.6,12.3,1.9c3.3,1.3,5.7,3.1,7.3,5.6c1.6,2.4,2.4,5.5,2.4,9.1
			c0,4.3-1.3,7.9-3.8,10.8c-2.5,2.9-6.9,4.4-13.2,4.7v1c6.9,0.3,11.9,1.9,15.2,4.8c3.3,2.9,4.9,6.8,4.9,11.5c0,3.8-0.8,7.1-2.3,10
			c-1.6,2.9-4,5.1-7.4,6.6C469.1,179.7,464.7,180.5,459.3,180.5z M432.6,129.4v8.7h22.3c2,0,3.3-0.3,4-1c0.7-0.6,1-1.7,1-3.3
			c0-1.6-0.4-2.7-1.3-3.4c-0.9-0.7-2.3-1-4.2-1H432.6z M432.6,153.8v9.5h24.3c2.3,0,3.9-0.3,4.7-1c0.8-0.6,1.3-1.9,1.3-3.8
			s-0.4-3.2-1.2-3.8c-0.8-0.6-2.4-0.9-4.8-0.9H432.6z"/>
		<path d="M526.1,181.5c-7.9,0-14.7-1.4-20.3-4.3c-5.7-2.9-10-7-13-12.2c-3-5.3-4.5-11.5-4.5-18.6s1.5-13.3,4.5-18.6
			c3-5.3,7.3-9.3,13-12.2c5.7-2.9,12.4-4.3,20.3-4.3c8.2,0,15.1,1.4,20.7,4.3c5.7,2.9,10,7,13,12.2c3,5.3,4.5,11.5,4.5,18.6
			s-1.5,13.3-4.5,18.6c-3,5.3-7.3,9.3-13,12.2C541.2,180.1,534.3,181.5,526.1,181.5z M526.1,163.2c4.6,0,8.2-0.5,10.8-1.4
			c2.6-0.9,4.4-2.6,5.5-5c1.1-2.4,1.6-5.9,1.6-10.4c0-4.6-0.5-8-1.6-10.4c-1.1-2.4-2.9-4.1-5.5-5c-2.6-0.9-6.2-1.4-10.8-1.4
			c-4.6,0-8.2,0.5-10.7,1.4c-2.5,0.9-4.3,2.6-5.2,5c-1,2.4-1.5,5.9-1.5,10.4c0,4.5,0.5,7.9,1.5,10.4c1,2.4,2.7,4.1,5.2,5
			C517.9,162.7,521.5,163.2,526.1,163.2z"/>
		<path d="M608.9,180.5h-19.2v-68.3h26l12.5,28.3l6.7,17.6h1.3l6.4-17.6l11.9-28.3h26v68.3h-19.2v-28.2l0.7-11.4h-1.3l-3.9,11.4
			l-10.2,24.1h-23.2l-10.2-24.1l-3.9-11.4h-1.3l0.7,11.4V180.5z"/>
		<path d="M707.3,180.5h-21.5l29.4-68.3h27.4l29.5,68.3h-22L734,141.1l-4.5-11.5h-1.3l-4.4,11.5L707.3,180.5z M753.5,167.9h-50.3
			v-17.2h50.3V167.9z"/>
		<path d="M796.4,180.5h-19.2v-68.3h26l12.5,28.3l6.7,17.6h1.3l6.4-17.6l11.9-28.3h26v68.3H849v-28.2l0.7-11.4h-1.3l-3.9,11.4
			l-10.2,24.1h-23.2l-10.2-24.1l-3.9-11.4h-1.3l0.7,11.4V180.5z"/>
		<path d="M894.7,180.5h-21.5l29.4-68.3h27.4l29.5,68.3h-22l-16.2-39.4l-4.5-11.5h-1.3l-4.4,11.5L894.7,180.5z M941,167.9h-50.3
			v-17.2H941V167.9z"/>
	</g>
	<g>
		<g>
			<ellipse transform="matrix(0.9732 -0.2298 0.2298 0.9732 -30.8234 28.7978)" cx="108.3" cy="146.8" rx="11.4" ry="11.4"/>
			<ellipse transform="matrix(0.7071 -0.7071 0.7071 0.7071 -58.4917 152.3151)" cx="154.6" cy="146.8" rx="11.4" ry="11.4"/>
			<path d="M206,130.7v-1.3c0-17.3-14.1-31.4-31.4-31.4h-20.1c-1.6-11-10.9-19.6-22-20.1c-11.9-0.5-22.3,8.3-24.1,20.1H88.2
				c-17.3,0-31.4,14.1-31.4,31.4v1.3c-9.1,0-16.5,7.4-16.5,16.5c0,9.1,7.4,16.5,16.5,16.5v1.3c0,17.3,14.1,31.4,31.4,31.4h86.4
				c17.3,0,31.4-14.1,31.4-31.4v-1.3c9.1,0,16.5-7.4,16.5-16.5C222.5,138,215.1,130.7,206,130.7z M132,87.7
				c5.9,0.3,10.9,4.5,12.4,10.2h-25.9C120.1,91.8,125.7,87.4,132,87.7z M95.8,115.8H167c7.3,0,13.5,4.2,16.5,10.3H79.3
				C82.3,120,88.6,115.8,95.8,115.8z M185.5,160.1c0,10.2-8.3,18.4-18.4,18.4H95.8c-10.2,0-18.4-8.3-18.4-18.4v-25.9
				c0-1.4,0.2-2.7,0.4-4H185c0.3,1.3,0.4,2.6,0.4,4V160.1z"/>
		</g>
		<rect x="129.5" y="64.7" width="3.9" height="15.3"/>
		<circle cx="131.4" cy="64.1" r="4.6"/>
	</g>
</g>
</svg>
